<svg width="32" height="32" viewBox="0 0 32 32" fill="none" xmlns="http://www.w3.org/2000/svg">
<rect width="32" height="32" rx="4" fill="#165DFF" fill-opacity="0.1"/>
<path d="M17.4144 9H24.0002C24.5525 9 25.0002 9.44772 25.0002 10V11H7.00017V8C7.00017 7.44772 7.44789 7 8.00017 7H15.4144L17.4144 9ZM7.08697 13H24.9134C25.4657 13 25.9134 13.4477 25.9134 14C25.9134 14.0277 25.9122 14.0554 25.9099 14.083L25.0766 24.083C25.0334 24.6013 24.6001 25 24.08 25H7.9203C7.40021 25 6.96695 24.6013 6.92376 24.083L6.09042 14.083C6.04456 13.5327 6.45355 13.0493 7.00392 13.0035C7.03155 13.0012 7.05925 13 7.08697 13Z" fill="#165DFF"/>
</svg>
